<svg version="1.0" xmlns="http://www.w3.org/2000/svg" width="499.000000pt" height="500.000000pt" viewBox="0 0 499.000000 500.000000" preserveAspectRatio="xMidYMid meet">

<g transform="translate(0.000000,500.000000) scale(0.100000,-0.100000)" fill="#30fca4" stroke="none">
<path d="M2435 4021 c-22 -10 -78 -52 -124 -92 -47 -41 -139 -121 -205 -179 -66 -58 -154 -133 -195 -168 -42 -35 -110 -94 -151 -131 -41 -37 -106 -93 -145 -126 -86 -72 -194 -165 -215 -185 -8 -8 -85 -74 -170 -147 -301 -255 -324 -277 -347 -323 -13 -24 -23 -59 -23 -77 0 -78 21 -102 309 -370 152 -142 401 -375 555 -518 692 -646 679 -635 758 -650 70 -13 127 26 413 280 79 70 634 549 804 693 81 70 170 146 338 290 40 35 82 81 93 103 28 54 27 133 -3 180 -20 32 -198 204 -355 343 -37 32 -123 111 -192 176 -264 246 -374 349 -485 450 -63 58 -193 178 -289 268 -219 204 -271 230 -371 183z m157 -218 c97 -94 97 -96 51 -141 -60 -57 -154 -132 -167 -132 -6 0 -49 35 -95 78 -82 76 -83 77 -65 98 32 36 185 164 196 164 5 0 41 -30 80 -67z m-259 -234 c42 -39 77 -78 77 -87 0 -17 -170 -172 -189 -172 -17 0 -172 152 -169 167 3 15 178 162 194 163 5 0 45 -32 87 -71z m461 -158 l71 -70 -40 -35 c-120 -105 -302 -261 -390 -333 -128 -106 -393 -330 -609 -515 -60 -51 -123 -104 -140 -118 -17 -13 -64 -53 -104 -87 -40 -35 -77 -63 -82 -63 -21 0 -452 409 -448 426 2 6 43 45 93 87 66 56 93 73 105 67 9 -5 56 -44 105 -89 60 -53 92 -75 95 -66 6 16 206 185 220 185 5 0 30 -22 56 -50 26 -27 50 -50 53 -50 6 0 193 154 277 229 22 20 76 65 119 101 44 36 116 97 160 136 44 38 114 97 155 131 41 33 105 88 143 122 37 33 72 61 78 61 6 0 43 -31 83 -69z m-715 -63 c42 -40 77 -77 79 -83 1 -6 -26 -34 -60 -62 -35 -28 -74 -63 -87 -77 -14 -14 -30 -26 -38 -26 -18 0 -168 140 -168 157 0 16 165 162 184 162 7 1 48 -31 90 -71z m-249 -219 l85 -80 -41 -37 c-76 -68 -146 -122 -159 -122 -21 0 -165 130 -164 149 0 14 175 171 189 170 3 0 43 -36 90 -80z m1225 12 c58 -57 64 -66 53 -82 -16 -23 -665 -569 -676 -569 -9 0 -142 130 -142 139 0 3 91 83 203 178 111 94 263 223 337 287 74 63 140 114 147 113 6 -1 41 -31 78 -66z m-1467 -236 c40 -37 72 -71 70 -76 -4 -13 -180 -159 -191 -159 -5 0 -46 36 -91 80 l-81 81 55 50 c92 84 130 110 149 99 9 -4 49 -39 89 -75z m1727 -16 c36 -34 65 -70 65 -79 0 -10 -10 -25 -22 -33 -13 -9 -39 -31 -59 -49 -20 -19 -58 -52 -85 -73 -75 -61 -238 -199 -249 -211 -5 -6 -71 -62 -145 -123 -74 -61 -166 -139 -205 -172 -38 -34 -101 -86 -140 -117 -38 -31 -72 -58 -75 -62 -3 -3 -41 -37 -85 -75 -44 -39 -82 -72 -85 -75 -28 -29 -171 -140 -180 -140 -7 0 -34 21 -61 47 -28 26 -56 51 -64 56 -40 22 -24 39 279 290 72 60 133 112 136 115 7 10 123 108 205 174 39 31 82 67 96 80 14 13 72 63 130 112 103 87 273 231 399 340 36 30 68 56 72 56 5 0 37 -28 73 -61z m434 -156 c126 -112 211 -196 211 -208 0 -11 -70 -75 -256 -232 -84 -70 -192 -162 -478 -408 -90 -77 -187 -160 -216 -185 -29 -25 -157 -134 -284 -242 -140 -120 -235 -194 -242 -190 -36 20 -304 277 -302 289 4 20 210 193 230 193 9 0 50 -29 90 -64 40 -35 78 -61 84 -58 6 4 34 28 62 53 l51 46 -70 69 c-38 38 -69 73 -69 79 0 12 59 65 235 211 66 55 151 128 190 162 38 34 75 62 81 62 7 0 46 -32 88 -71 l76 -71 60 53 c33 30 60 56 60 60 0 4 -29 34 -65 68 -36 33 -65 66 -65 73 0 13 130 131 250 228 30 24 81 68 113 97 32 29 65 53 74 53 9 0 50 -30 92 -67z m-1446 -221 c43 -44 66 -74 62 -83 -4 -8 -31 -34 -62 -59 -31 -25 -118 -99 -195 -165 -77 -66 -154 -131 -171 -145 -18 -13 -60 -48 -94 -78 -73 -62 -70 -63 -158 28 l-60 62 45 40 c68 61 229 198 285 243 28 21 68 56 90 76 76 71 170 148 180 148 6 1 41 -30 78 -67z" fill="#30fca4"/>
</g>
</svg>