<svg width="90" height="91" viewBox="0 0 90 91" fill="none" xmlns="http://www.w3.org/2000/svg">
<rect x="0.5" y="1" width="89" height="89" rx="44.5" stroke="#70869F"/>
<path d="M38.1667 40.375H51.8333M38.1667 47.2084H48.4167M48.4167 55.75H46.7083L38.1667 60.875V55.75H34.75C33.3908 55.75 32.0872 55.2101 31.1261 54.249C30.165 53.2878 29.625 51.9843 29.625 50.625V36.9584C29.625 35.5991 30.165 34.2956 31.1261 33.3345C32.0872 32.3733 33.3908 31.8334 34.75 31.8334H55.25C56.6092 31.8334 57.9128 32.3733 58.8739 33.3345C59.835 34.2956 60.375 35.5991 60.375 36.9584V44.6459M56.9583 62.5834V62.6005M56.9583 57.4584C57.7242 57.4559 58.4671 57.1967 59.0681 56.722C59.6691 56.2474 60.0935 55.5848 60.2734 54.8404C60.4533 54.096 60.3783 53.3128 60.0604 52.616C59.7424 51.9193 59.2 51.3494 58.5197 50.9975C57.8401 50.6493 57.0627 50.5414 56.314 50.6912C55.5652 50.841 54.8892 51.2398 54.3958 51.8226" stroke="#354052" stroke-width="4" stroke-linecap="round" stroke-linejoin="round"/>
</svg>
