<svg width="90" height="91" viewBox="0 0 90 91" fill="none" xmlns="http://www.w3.org/2000/svg">
<rect x="0.5" y="1" width="89" height="89" rx="44.5" stroke="#70869F"/>
<path d="M40 33.8333H36.6667C35.7826 33.8333 34.9348 34.1845 34.3096 34.8096C33.6845 35.4348 33.3333 36.2826 33.3333 37.1667V57.1667C33.3333 58.0507 33.6845 58.8986 34.3096 59.5237C34.9348 60.1488 35.7826 60.5 36.6667 60.5H53.3333C54.2174 60.5 55.0652 60.1488 55.6904 59.5237C56.3155 58.8986 56.6667 58.0507 56.6667 57.1667V37.1667C56.6667 36.2826 56.3155 35.4348 55.6904 34.8096C55.0652 34.1845 54.2174 33.8333 53.3333 33.8333H50M40 33.8333C40 32.9493 40.3512 32.1014 40.9763 31.4763C41.6014 30.8512 42.4493 30.5 43.3333 30.5H46.6667C47.5507 30.5 48.3986 30.8512 49.0237 31.4763C49.6488 32.1014 50 32.9493 50 33.8333M40 33.8333C40 34.7174 40.3512 35.5652 40.9763 36.1904C41.6014 36.8155 42.4493 37.1667 43.3333 37.1667H46.6667C47.5507 37.1667 48.3986 36.8155 49.0237 36.1904C49.6488 35.5652 50 34.7174 50 33.8333M41.6667 48.8333H48.3333M45 45.5V52.1667" stroke="#354052" stroke-width="4" stroke-linecap="round" stroke-linejoin="round"/>
</svg>
