<svg width="90" height="91" viewBox="0 0 90 91" fill="none" xmlns="http://www.w3.org/2000/svg">
<rect x="0.5" y="1" width="89" height="89" rx="44.5" stroke="#70869F"/>
<path d="M57.8126 46.4772L45.0001 59.1667L32.1876 46.4772C31.3425 45.6548 30.6768 44.6664 30.2325 43.5741C29.7882 42.4818 29.5748 41.3094 29.6059 40.1306C29.6369 38.9518 29.9117 37.7922 30.4129 36.7249C30.9141 35.6575 31.6309 34.7055 32.5181 33.9287C33.4054 33.152 34.4438 32.5674 35.5681 32.2117C36.6923 31.856 37.8781 31.737 39.0506 31.862C40.2231 31.9871 41.3571 32.3536 42.381 32.9385C43.405 33.5233 44.2967 34.3138 45.0001 35.2602C45.7066 34.3207 46.5993 33.5371 47.6226 32.9584C48.6458 32.3798 49.7775 32.0186 50.9467 31.8974C52.1159 31.7763 53.2976 31.8977 54.4178 32.2542C55.5379 32.6108 56.5724 33.1947 57.4565 33.9694C58.3406 34.7441 59.0553 35.6929 59.5558 36.7566C60.0564 37.8202 60.332 38.9757 60.3654 40.1507C60.3988 41.3257 60.1893 42.495 59.7501 43.5854C59.3108 44.6757 58.6512 45.6637 57.8126 46.4874M45 35.25L39.3744 40.8755C39.0542 41.1959 38.8742 41.6304 38.8742 42.0833C38.8742 42.5363 39.0542 42.9708 39.3744 43.2911L40.302 44.2188C41.4808 45.3975 43.3941 45.3975 44.5729 44.2188L46.2812 42.5104C47.3006 41.491 48.6833 40.9183 50.125 40.9183C51.5666 40.9183 52.9493 41.491 53.9687 42.5104L57.8125 46.3542M45.8542 51.4792L49.2708 54.8958M50.125 47.2083L53.5417 50.625" stroke="#354052" stroke-width="2" stroke-linecap="round" stroke-linejoin="round"/>
</svg>
