<svg width="283" height="65" viewBox="0 0 283 65" fill="none" xmlns="http://www.w3.org/2000/svg">
<rect x="0.5" y="0.5" width="282" height="64" rx="32" stroke="url(#paint0_linear_1507_13556)"/>
<path d="M31.0615 49.6135C32.6385 49.6135 34.0445 49.3475 35.2795 48.8155C36.5335 48.2835 37.588 47.5425 38.443 46.5925C39.317 45.6425 39.982 44.5025 40.438 43.1725C40.894 41.8235 41.122 40.332 41.122 38.698V13.96H47.7625V38.698C47.7625 41.111 47.373 43.3435 46.594 45.3955C45.834 47.4475 44.732 49.224 43.288 50.725C41.844 52.207 40.0865 53.3755 38.0155 54.2305C35.9635 55.0665 33.6455 55.4845 31.0615 55.4845C28.4775 55.4845 26.15 55.0665 24.079 54.2305C22.027 53.3755 20.279 52.207 18.835 50.725C17.391 49.224 16.2795 47.4475 15.5005 45.3955C14.7405 43.3435 14.3605 41.111 14.3605 38.698V13.96H21.0295V38.6695C21.0295 40.3035 21.2575 41.795 21.7135 43.144C22.1695 44.474 22.825 45.6235 23.68 46.5925C24.535 47.5425 25.58 48.2835 26.815 48.8155C28.069 49.3475 29.4845 49.6135 31.0615 49.6135ZM89.9832 13.96V55H86.5917C86.0787 55 85.6417 54.9145 85.2807 54.7435C84.9197 54.5535 84.5777 54.2495 84.2547 53.8315L61.7112 24.8755C61.7682 25.4265 61.8062 25.9775 61.8252 26.5285C61.8632 27.0605 61.8822 27.5545 61.8822 28.0105V55H56.0112V13.96H59.4882C59.7732 13.96 60.0107 13.979 60.2007 14.017C60.4097 14.036 60.5997 14.0835 60.7707 14.1595C60.9417 14.2355 61.1032 14.3495 61.2552 14.5015C61.4072 14.6535 61.5687 14.8435 61.7397 15.0715L84.3117 44.056C84.2547 43.467 84.2072 42.8875 84.1692 42.3175C84.1502 41.7475 84.1407 41.2155 84.1407 40.7215V13.96H89.9832ZM122.475 49.414V55H98.7631V13.96H105.432V49.414H122.475ZM219.956 45.8515C220.317 45.8515 220.63 45.994 220.896 46.279L223.547 49.1575C221.875 51.1715 219.823 52.7295 217.391 53.8315C214.959 54.9145 212.052 55.456 208.67 55.456C205.668 55.456 202.951 54.943 200.519 53.917C198.106 52.872 196.044 51.428 194.334 49.585C192.624 47.723 191.304 45.5095 190.373 42.9445C189.461 40.3795 189.005 37.558 189.005 34.48C189.005 31.402 189.489 28.5805 190.458 26.0155C191.446 23.4315 192.824 21.218 194.591 19.375C196.377 17.513 198.505 16.069 200.975 15.043C203.464 14.017 206.2 13.504 209.183 13.504C212.147 13.504 214.759 13.9885 217.02 14.9575C219.3 15.9075 221.276 17.1805 222.948 18.7765L220.754 21.883C220.602 22.092 220.421 22.2725 220.212 22.4245C220.003 22.5765 219.718 22.6525 219.357 22.6525C218.977 22.6525 218.54 22.4815 218.046 22.1395C217.571 21.7785 216.954 21.389 216.194 20.971C215.453 20.534 214.512 20.1445 213.372 19.8025C212.251 19.4415 210.845 19.261 209.154 19.261C207.197 19.261 205.402 19.603 203.768 20.287C202.134 20.971 200.728 21.9685 199.55 23.2795C198.372 24.5905 197.45 26.1865 196.785 28.0675C196.139 29.9485 195.816 32.086 195.816 34.48C195.816 36.893 196.158 39.0495 196.842 40.9495C197.526 42.8305 198.467 44.4265 199.664 45.7375C200.861 47.0295 202.267 48.0175 203.882 48.7015C205.497 49.3855 207.235 49.7275 209.097 49.7275C210.237 49.7275 211.254 49.6705 212.147 49.5565C213.059 49.4235 213.895 49.224 214.655 48.958C215.415 48.673 216.127 48.3215 216.792 47.9035C217.476 47.4855 218.151 46.9725 218.816 46.3645C219.196 46.0225 219.576 45.8515 219.956 45.8515ZM234.976 31.516H236.886C237.608 31.516 238.197 31.421 238.653 31.231C239.109 31.022 239.517 30.699 239.878 30.262L252.304 15.442C252.741 14.891 253.188 14.511 253.644 14.302C254.119 14.074 254.708 13.96 255.411 13.96H261.111L246.433 31.288C246.034 31.782 245.645 32.2 245.265 32.542C244.904 32.865 244.505 33.131 244.068 33.34C244.638 33.549 245.151 33.8435 245.607 34.2235C246.063 34.5845 246.509 35.069 246.946 35.677L262.165 55H256.351C255.933 55 255.572 54.9715 255.268 54.9145C254.983 54.8575 254.727 54.772 254.499 54.658C254.29 54.544 254.1 54.4015 253.929 54.2305C253.777 54.0595 253.634 53.8695 253.501 53.6605L240.676 37.9855C240.486 37.7385 240.296 37.5295 240.106 37.3585C239.916 37.1875 239.688 37.045 239.422 36.931C239.175 36.817 238.89 36.741 238.567 36.703C238.244 36.646 237.864 36.6175 237.427 36.6175H234.976V55H228.307V13.96H234.976V31.516Z" fill="#81E6D9"/>
<defs>
<linearGradient id="paint0_linear_1507_13556" x1="-19.9109" y1="48.0729" x2="112.03" y2="47.1361" gradientUnits="userSpaceOnUse">
<stop stop-color="#011A42"/>
<stop offset="1" stop-color="#03C7C1"/>
</linearGradient>
</defs>
</svg>
